<svg width="23" height="21" fill="none" xmlns="http://www.w3.org/2000/svg"><path d="m12.9636 3.78-.6272 3.045-.6273 2.625h9.0954v2.205L17.7727 18.9H8.36364V8.4l4.59996-4.62ZM2.09091 10.5v8.4-8.4ZM13.8 0 6.9 6.93c-.41818.315-.62727.84-.62727 1.47v10.5c0 1.155.94091 2.1 2.09091 2.1h9.40906c.8364 0 1.5682-.525 1.8818-1.26l3.1364-7.455c.1046-.21.1046-.525.1046-.735v-2.1H23c0-1.155-.9409-2.1-2.0909-2.1h-6.5864l1.0455-4.83v-.315c0-.42-.2091-.84-.4182-1.155L13.8 0ZM4.18182 8.4H0V21h4.18182V8.4Z" fill="#fff"/></svg>